 <svg 
 xmlns="http://www.w3.org/2000/svg"
 xmlns:xlink="http://www.w3.org/1999/xlink"
 viewBox="0 0 85 110"
 fill="rgb(0, 0, 0)">
  <path fill-rule="evenodd"  fill="rgb(254, 254, 254)"
 d="M17.728,66.264 C17.728,80.495 17.236,91.782 16.498,96.935 C16.006,101.106 13.792,102.333 1.495,102.824 L0.511,109.694 C9.611,109.694 17.974,108.958 28.549,108.958 C39.617,108.958 50.931,109.694 59.785,109.694 L60.769,102.824 C42.077,102.088 40.355,100.861 40.109,95.463 C39.617,89.328 39.617,78.287 39.617,51.051 C39.617,45.407 40.109,41.481 41.339,37.310 C44.290,27.004 50.193,16.944 57.325,16.944 C62.736,16.944 64.458,20.134 65.934,25.287 C66.917,27.986 69.131,29.213 73.066,29.213 C76.755,29.213 84.380,25.778 84.380,15.472 C84.380,8.356 78.969,0.750 68.885,0.750 C53.636,0.750 45.028,12.773 39.125,25.778 L38.387,25.778 C38.387,20.625 37.649,7.620 36.666,1.731 L35.928,0.995 C26.336,3.694 11.825,4.921 1.495,5.166 L1.249,11.791 L10.841,12.037 C14.038,12.037 15.514,13.264 16.006,15.717 C16.744,20.134 17.728,30.685 17.728,46.143 L17.728,66.264 Z"/>
</svg>
